<svg xmlns="http://www.w3.org/2000/svg" width="92.066" height="77.32" viewBox="0 0 92.066 77.32">
  <g id="bus" transform="translate(0 -34.55)">
    <g id="Group_80" data-name="Group 80" transform="translate(0 34.55)">
      <g id="Group_79" data-name="Group 79" transform="translate(0)">
        <path id="Path_93" data-name="Path 93" d="M392.594,188.911v6.641a3.32,3.32,0,0,1-3.32,3.321H382.06V185.59h7.213a3.32,3.32,0,0,1,3.321,3.32Z" transform="translate(-300.527 -153.358)" fill="#4c8ec9"/>
        <path id="Path_94" data-name="Path 94" d="M120.359,107.481v4.595l-43.85-.2a9,9,0,0,0-18-.083l-9.144-.043V86.29l71,.324v20.867Z" transform="translate(-38.826 -75.249)" fill="#d4e1f4"/>
        <path id="Path_95" data-name="Path 95" d="M120.359,41.458v4.458l-71-.324v-4.4A6.642,6.642,0,0,1,56,34.55h.031l57.717.265A6.643,6.643,0,0,1,120.359,41.458Z" transform="translate(-38.826 -34.55)" fill="#32325d"/>
        <path id="Path_96" data-name="Path 96" d="M310.48,351v6.28a3.32,3.32,0,0,1-3.32,3.321h-7.148a3.322,3.322,0,0,1-3.323-3.321V351.11h11.577a6.631,6.631,0,0,0,2.13-.35Z" transform="translate(-233.375 -283.28)" fill="#4c8ec9"/>
        <path id="Path_97" data-name="Path 97" d="M110.215,173.327l-18-.083a9,9,0,0,1,18,.083Z" transform="translate(-72.532 -136.701)" fill="#d4e1f4"/>
        <g id="Group_78" data-name="Group 78" transform="translate(0 32.232)">
          <path id="Path_98" data-name="Path 98" d="M83.9,351.191v6.088a3.322,3.322,0,0,1-3.323,3.321H73.431a3.32,3.32,0,0,1-3.321-3.32h0v-6.253l.083-.267a6.632,6.632,0,0,0,2.13.35H83.9Z" transform="translate(-55.148 -315.512)" fill="#4c8ec9"/>
          <path id="Path_99" data-name="Path 99" d="M10.534,189.858v9.014H3.321A3.32,3.32,0,0,1,0,195.553H0v-6.641a3.32,3.32,0,0,1,3.32-3.321h7.214Z" transform="translate(0 -185.59)" fill="#4c8ec9"/>
        </g>
      </g>
      <path id="Path_100" data-name="Path 100" d="M104.481,165.525h-4.268v-.085a6.869,6.869,0,0,0-13.737-.044v.129H82.208c0-.074,0-.151,0-.226a11.138,11.138,0,0,1,22.272.12Z" transform="translate(-28.665 -131.814)" fill="#4c8ec9"/>
    </g>
    <g id="Group_81" data-name="Group 81" transform="translate(10.534 71.05)">
      <path id="Path_101" data-name="Path 101" d="M76.509,205.716l43.85.2V230.7a6.638,6.638,0,0,1-6.633,6.643H56a6.638,6.638,0,0,1-6.641-6.636V205.59l9.144.043Zm36.712,20.6v-7.949h-11.6v7.949Zm-45.124,0v-7.949H56.5v7.949Z" transform="translate(-49.36 -205.59)" fill="#32325d"/>
    </g>
    <g id="Group_82" data-name="Group 82" transform="translate(62.796 83.829)">
      <rect id="Rectangle_42" data-name="Rectangle 42" width="11.598" height="7.949" transform="translate(0 0)" fill="#d4e1f4"/>
    </g>
    <g id="Group_83" data-name="Group 83" transform="translate(17.672 83.829)">
      <rect id="Rectangle_43" data-name="Rectangle 43" width="11.598" height="7.949" transform="translate(0 0)" fill="#d4e1f4"/>
    </g>
    <g id="Group_84" data-name="Group 84" transform="translate(35.369 89.267)">
      <path id="Path_102" data-name="Path 102" d="M184.933,295.218H167.874a2.134,2.134,0,0,1,0-4.268h17.059a2.134,2.134,0,0,1,0,4.268Z" transform="translate(-165.74 -290.95)" fill="#00acea"/>
    </g>
    <g id="Group_85" data-name="Group 85" transform="translate(35.369 83.317)">
      <path id="Path_103" data-name="Path 103" d="M184.933,267.338H167.874a2.134,2.134,0,0,1,0-4.268h17.059a2.134,2.134,0,0,1,0,4.268Z" transform="translate(-165.74 -263.07)" fill="#00acea"/>
    </g>
  </g>
</svg>
