<svg xmlns="http://www.w3.org/2000/svg" width="94.289" height="52.042" viewBox="0 0 94.289 52.042">
  <g id="shoe" transform="translate(0 -114.703)">
    <g id="Group_89" data-name="Group 89" transform="translate(0 123.906)">
      <g id="Group_88" data-name="Group 88" transform="translate(0 0)">
        <path id="Path_109" data-name="Path 109" d="M93.658,190.207a10.286,10.286,0,0,0-4.265-8.143,1.381,1.381,0,0,0-1.613,2.242,7.522,7.522,0,0,1,3.1,5.525,7.786,7.786,0,0,0-3.973,3.3c-10.905,3.493-21.131,4.592-30.44,3.276l-7.892-1.71c-.2-.055-.4-.108-.6-.165-.532-.152-1.028-.3-1.5-.443l-7.135-2.412c-.655-.212-1.359-.429-2.137-.654l-.2-.058-7.777-1.793c-1.346-.228-2.7-.418-4.04-.559-.309-.033-.622-.061-.934-.089v-.672a7.156,7.156,0,0,0-7.149-7.147H8.266v-.2a26.411,26.411,0,0,1,.927-6.935l1.557-5.721a.559.559,0,0,1,.963-.218l1.147,1.329a1.381,1.381,0,1,0,2.091-1.8L13.8,165.827a3.32,3.32,0,0,0-5.717,1.3l-1.557,5.721A29.169,29.169,0,0,0,5.5,180.5v9.018a3.331,3.331,0,0,0-1.247,1.32L.2,198.657h0l-.011.021c0,.007-.006.015-.01.022q-.028.055-.05.113c-.005.013-.01.026-.015.04q-.019.054-.034.109c0,.014-.008.028-.011.043-.009.038-.015.076-.021.115,0,.013,0,.026-.006.039-.509,4.5,3.979,8.355,8.193,8.355H29.058a2.6,2.6,0,0,0,1.847-.776,2.463,2.463,0,0,0,.7-1.541l2.106.367a1.381,1.381,0,1,0,.474-2.72l-2.29-.4a2.559,2.559,0,0,0-3.037,2.308H24.129a8.213,8.213,0,0,0-8.083-6.819H3.685l3.024-5.818a.565.565,0,0,1,.275-.256,1.368,1.368,0,0,0,.352-.072,71.768,71.768,0,0,1,12.55-.76c1.689.047,3.373.159,5.006.331,1.494.158,3.013.375,4.5.644,2.4.452,4.769,1.014,7.041,1.672,3.633,1.052,7.142,2.477,10.781,3.512,1.968.56,3.962,1.05,5.94,1.46l.012,0,.008,0c9.785,1.925,20.544,1.212,32.022-2.113l-2.439,4.952L72.8,204.443a7.493,7.493,0,0,1-2.131.309H68.549l-15.223-4.891A5.667,5.667,0,0,0,47.6,201.22l-3.42,3.363-4.247-.74a1.381,1.381,0,1,0-.474,2.72l4.946.861a5.986,5.986,0,0,0,1.024.088H70.668a10.258,10.258,0,0,0,2.916-.423l10.526-3.12.026-.008,4.686-1.389a7.681,7.681,0,0,0,5.467-7.321v-3.511A2.206,2.206,0,0,0,93.658,190.207ZM16.045,200.7a5.45,5.45,0,0,1,5.262,4.057H8.232A5.449,5.449,0,0,1,2.97,200.7Zm5.441-12.367a73.761,73.761,0,0,0-13.22.54v-5.4H17.1a4.391,4.391,0,0,1,4.388,4.385Zm26.464,16.424,1.59-1.564a2.914,2.914,0,0,1,2.942-.7l7.04,2.262Zm43.578-9.5a4.9,4.9,0,0,1-3.491,4.673l-1.674.5,2.725-5.534a5,5,0,0,1,2.439-2.345Z" transform="translate(0 -164.675)" fill="#040444"/>
      </g>
    </g>
    <g id="Group_91" data-name="Group 91" transform="translate(17.152 114.703)">
      <g id="Group_90" data-name="Group 90">
        <path id="Path_110" data-name="Path 110" d="M158.7,139.307l-6.944-.679a75.727,75.727,0,0,1-8.268-1.276,118.821,118.821,0,0,1-12.81-7.871l.122-.145a1.381,1.381,0,0,0-2.114-1.777l-.253.3q-1.335-.99-2.645-2.018l.156-.186a1.381,1.381,0,0,0-2.114-1.777l-.193.23q-1.351-1.114-2.67-2.267l.175-.208a1.381,1.381,0,0,0-2.114-1.777l-.118.141q-2.309-2.117-4.5-4.349-.043-.044-.091-.085a3.612,3.612,0,0,0-4.983.285,14.4,14.4,0,0,0-2.353,3.622,16.329,16.329,0,0,0-1.587,8.048,11.882,11.882,0,0,1-10.424,1.264,1.381,1.381,0,0,0-.914,2.606,14.643,14.643,0,0,0,15.536-3.814,2.694,2.694,0,0,1,3.342-.467l-1.472,1.752a1.381,1.381,0,0,0,.169,1.945,1.406,1.406,0,0,0,1.945-.169l1.744-2.076,2.706,1.647.323.193-.939,1.117a1.381,1.381,0,0,0,.169,1.945,1.406,1.406,0,0,0,1.945-.169l1.252-1.49q1.487.824,3.01,1.584l-.622.741a1.381,1.381,0,0,0,.169,1.945,1.406,1.406,0,0,0,1.945-.169l1.085-1.291a80,80,0,0,0,16.267,5.378,1.378,1.378,0,0,0,.251.053,78.485,78.485,0,0,0,8.6,1.33l6.944.679q.069.007.136.007a1.381,1.381,0,0,0,.132-2.755ZM114.738,124.97l-.348-.212a5.47,5.47,0,0,0-6.179.361,13.785,13.785,0,0,1,1.266-4.453,11.726,11.726,0,0,1,1.877-2.927.855.855,0,0,1,1.142-.1q2.256,2.3,4.639,4.477Zm5.417,3.291q-.344-.2-.686-.411l-2.345-1.427,2.07-2.464q1.318,1.153,2.671,2.266Zm5.468,2.951q-1.532-.747-3.028-1.562l1.421-1.691q1.309,1.03,2.642,2.021Zm2.593,1.206.685-.815q1.957,1.386,3.976,2.7Q130.516,133.436,128.216,132.418Z" transform="translate(-93.138 -114.703)" fill="#040444"/>
      </g>
    </g>
  </g>
</svg>
