<svg xmlns="http://www.w3.org/2000/svg" width="20.596" height="20.556" viewBox="0 0 20.596 20.556">
  <g id="surface1" transform="translate(0)">
    <path id="Path_50" data-name="Path 50" d="M170.522,83.069a5.418,5.418,0,1,0,0,7.662A5.4,5.4,0,0,0,170.522,83.069Zm0,0" transform="translate(-154.788 -78.207)" fill="#e8b62d"/>
    <path id="Path_51" data-name="Path 51" d="M94.633,2.546A8.693,8.693,0,1,0,82.339,14.84,8.693,8.693,0,1,0,94.633,2.546ZM93.17,13.377a6.624,6.624,0,1,1,0-9.368A6.6,6.6,0,0,1,93.17,13.377Zm0,0" transform="translate(-76.583 0)" fill="#e8b62d"/>
    <path id="Path_52" data-name="Path 52" d="M3.923,357.531.47,360.967a1.6,1.6,0,0,0,2.267,2.269L6.192,359.8a8.8,8.8,0,0,1-2.269-2.267Zm0,0" transform="translate(0 -343.149)" fill="#e8b62d"/>
  </g>
</svg>
